<?xml version="1.0" encoding="utf-8"?>
<!-- Generator: Adobe Illustrator 27.0.0, SVG Export Plug-In . SVG Version: 6.00 Build 0)  -->
<svg version="1.1" id="Layer_1" xmlns="http://www.w3.org/2000/svg" xmlns:xlink="http://www.w3.org/1999/xlink" x="0px" y="0px"
	 viewBox="0 0 612 792" style="enable-background:new 0 0 612 792;" xml:space="preserve">
<style type="text/css">
	.st0{fill:#FFFFFF;}
</style>
<g>
	<path class="st0" d="M114,381.7c0-44.3,0-88.5,0-132.8c7.3,20.7,15,26.2,37,26.2c104.3,0,208.6,0,312.9,0c1.6,0,3.3,0,4.9-0.1
		c14-0.8,25.1-10,28.4-23.6c0.2-0.8,0.5-1.6,0.8-2.5c0,44.3,0,88.5,0,132.8c-0.2-0.3-0.5-0.6-0.5-0.9c-4-16.3-14.9-24.8-31.9-24.8
		c-106.4,0-212.7,0-319.1,0c-1.2,0-2.5,0-3.7,0.1c-12.8,0.7-23.6,9.1-27.4,21.4C114.9,378.9,114.4,380.3,114,381.7z"/>
	<path class="st0" d="M498,390.7c0,44.3,0,88.5,0,132.8c-0.2-0.5-0.4-0.9-0.6-1.4c-4.3-16.3-15.2-24.8-32-24.8
		c-106.3,0-212.6,0-318.9,0c-1.1,0-2.2,0-3.4,0.1c-13.8,0.8-24.9,9.9-28.3,23.3c-0.2,0.9-0.5,1.9-0.8,2.8c0-44.3,0-88.5,0-132.8
		c0.2,0.3,0.5,0.6,0.5,1c4,16.3,14.9,24.8,31.9,24.8c106.4,0,212.7,0,319.1,0c1.2,0,2.5,0,3.7-0.1c12.9-0.7,23.6-9.1,27.3-21.4
		C497.1,393.5,497.6,392.1,498,390.7z"/>
	<path d="M114,523.5c0.3-0.9,0.6-1.9,0.8-2.8c3.4-13.4,14.5-22.5,28.3-23.3c1.1-0.1,2.2-0.1,3.4-0.1c106.3,0,212.6,0,318.9,0
		c16.8,0,27.7,8.4,32,24.8c0.1,0.5,0.4,0.9,0.6,1.4c0,3,0,6,0,9c-0.2,0.2-0.4,0.3-0.5,0.6c-4.9,17.3-15,25-32.9,25c-23,0-46,0-69,0
		c-83.2,0-166.5,0-249.7,0c-16.1,0-27.4-8.8-31.3-24.2c-0.1-0.5-0.4-0.9-0.6-1.3C114,529.5,114,526.5,114,523.5z"/>
	<path d="M498,249c-0.3,0.8-0.6,1.6-0.8,2.5c-3.4,13.6-14.4,22.8-28.4,23.6c-1.6,0.1-3.2,0.1-4.9,0.1c-104.3,0-208.6,0-312.9,0
		c-22,0-29.7-5.5-37-26.2c0-3,0-6,0-9c0.2-0.2,0.4-0.3,0.5-0.6c4.9-17.3,15-25,33-25c91,0,182,0,272.9,0c16,0,32-0.1,48,0.1
		c12.6,0.1,23.8,8.3,27.9,20.2c0.6,1.7,1.1,3.5,1.7,5.3C498,243,498,246,498,249z"/>
	<path d="M498,390.7c-0.4,1.4-0.9,2.8-1.3,4.2c-3.8,12.4-14.5,20.8-27.3,21.4c-1.2,0.1-2.5,0.1-3.7,0.1c-106.4,0-212.7,0-319.1,0
		c-17,0-27.9-8.5-31.9-24.8c-0.1-0.3-0.4-0.6-0.5-1c0-3,0-6,0-9c0.4-1.4,0.9-2.8,1.3-4.2c3.8-12.3,14.5-20.8,27.4-21.4
		c1.2-0.1,2.5-0.1,3.7-0.1c106.4,0,212.7,0,319.1,0c17,0,27.9,8.5,31.9,24.8c0.1,0.3,0.4,0.6,0.5,0.9C498,384.7,498,387.7,498,390.7
		z"/>
	<path class="st0" d="M498,240c-0.6-1.8-1.1-3.5-1.7-5.3c-4.2-11.9-15.3-20.1-27.9-20.2c-16-0.2-32-0.1-48-0.1c-91,0-182,0-272.9,0
		c-17.9,0-28.1,7.7-33,25c-0.1,0.2-0.3,0.4-0.5,0.6c0-15.2,0-30.5,0-45.7c128,0,256,0,384,0C498,209.5,498,224.7,498,240z"/>
	<path class="st0" d="M114,532.5c0.2,0.4,0.5,0.8,0.6,1.3c3.9,15.4,15.2,24.2,31.3,24.2c83.2,0,166.5,0,249.7,0c23,0,46,0,69,0
		c17.9,0,28-7.6,32.9-25c0.1-0.2,0.3-0.4,0.5-0.6c0,15.3,0,30.5,0,45.8c-128,0-256,0-384,0C114,563,114,547.7,114,532.5z"/>
</g>
</svg>
